<svg width="300" height="70" viewBox="0 0 300 70" fill="none" xmlns="http://www.w3.org/2000/svg">
<path d="M70.2377 14.5395V28.828H69.1317C67.7965 24.9221 65.7937 21.9528 63.1234 19.9201C60.453 17.8874 57.5335 16.8711 54.3649 16.8711C51.3359 16.8711 48.8149 17.728 46.8022 19.4418C44.7895 21.1357 43.3646 23.5072 42.5276 26.5562C41.6906 29.6052 41.2721 32.7339 41.2721 35.9423C41.2721 39.8283 41.7305 43.236 42.6472 46.1655C43.5639 49.0949 45.0386 51.2471 47.0712 52.6222C49.1238 53.9972 51.5551 54.6847 54.3649 54.6847C55.3414 54.6847 56.3378 54.5851 57.3542 54.3858C58.3904 54.1666 59.4466 53.8577 60.5227 53.4592V45.0296C60.5227 43.4353 60.4131 42.409 60.1939 41.9507C59.9747 41.4724 59.5164 41.0439 58.8189 40.6653C58.1413 40.2867 57.3143 40.0973 56.3378 40.0973H55.2916V38.9913H74.9906V40.0973C73.4959 40.197 72.4497 40.4062 71.8519 40.7251C71.274 41.024 70.8256 41.5322 70.5067 42.2496C70.3274 42.6282 70.2377 43.5549 70.2377 45.0296V53.4592C67.647 54.615 64.9468 55.4819 62.1369 56.0598C59.347 56.6576 56.4474 56.9566 53.4383 56.9566C49.5921 56.9566 46.3937 56.4384 43.8429 55.4022C41.312 54.346 39.0701 52.9709 37.1171 51.277C35.1841 49.5632 33.6696 47.6401 32.5735 45.5078C31.1785 42.7577 30.4811 39.6789 30.4811 36.2711C30.4811 30.1731 32.6233 25.0217 36.9079 20.8169C41.1924 16.612 46.583 14.5096 53.0796 14.5096C55.0923 14.5096 56.9058 14.669 58.52 14.9879C59.3968 15.1473 60.8117 15.6057 62.7646 16.3629C64.7375 17.1003 65.9033 17.4689 66.262 17.4689C66.82 17.4689 67.3382 17.2697 67.8164 16.8711C68.2947 16.4526 68.7331 15.6754 69.1317 14.5395H70.2377Z" fill="url(#paint0_linear_191_676)"/>
<path d="M28.8325 14.8196V15.5513C27.8569 15.7095 26.9868 16.2302 26.2222 17.1135C25.6685 17.7727 24.8445 19.3218 23.7502 21.7607L14.5151 42.248H13.8625L4.66699 20.9302C3.55957 18.3594 2.8147 16.8499 2.43237 16.4016C2.06323 15.9534 1.35791 15.6699 0.316406 15.5513V14.8196H13.1704V15.5513H12.7354C11.5752 15.5513 10.7842 15.6963 10.3623 15.9863C10.0591 16.1841 9.90747 16.4741 9.90747 16.8564C9.90747 17.0938 9.96021 17.3772 10.0657 17.7068C10.1711 18.0232 10.5271 18.8867 11.1335 20.2974L16.8486 33.6458L22.1484 21.7607C22.7812 20.3237 23.1702 19.3613 23.3152 18.8735C23.4602 18.3857 23.5327 17.9705 23.5327 17.6277C23.5327 17.2322 23.4272 16.8828 23.2163 16.5796C23.0054 16.2764 22.6956 16.0457 22.2869 15.8875C21.72 15.6633 20.9685 15.5513 20.0325 15.5513V14.8196H28.8325Z" fill="url(#paint1_linear_191_676)"/>
<circle cx="14.5" cy="53.135" r="3.5" fill="url(#paint2_linear_191_676)"/>
<path d="M109.867 24.6497L100.895 49.635H97.9722L89 24.6497H92.042L97.8867 41.1072C98.126 41.768 98.3368 42.4003 98.519 43.0042C98.7127 43.608 98.8836 44.189 99.0317 44.7473C99.1799 45.3056 99.3109 45.8468 99.4248 46.3708C99.5387 45.8468 99.6698 45.3056 99.8179 44.7473C99.966 44.1777 100.137 43.5909 100.331 42.9871C100.524 42.3718 100.741 41.7281 100.98 41.0559L106.791 24.6497H109.867ZM119.881 30.5969C122.114 30.5969 123.772 31.0982 124.854 32.1008C125.937 33.1034 126.478 34.7042 126.478 36.9031V49.635H124.41L123.863 46.8665H123.727C123.202 47.55 122.656 48.1254 122.086 48.5925C121.516 49.0483 120.855 49.3958 120.104 49.635C119.363 49.8629 118.451 49.9768 117.369 49.9768C116.23 49.9768 115.216 49.7774 114.327 49.3787C113.45 48.9799 112.755 48.3761 112.242 47.5671C111.741 46.7582 111.49 45.7328 111.49 44.491C111.49 42.6225 112.231 41.1869 113.712 40.1843C115.193 39.1817 117.449 38.6348 120.479 38.5437L123.709 38.407V37.262C123.709 35.6441 123.362 34.5105 122.667 33.8611C121.972 33.2117 120.992 32.887 119.728 32.887C118.748 32.887 117.813 33.0294 116.925 33.3142C116.036 33.599 115.193 33.9351 114.396 34.3225L113.524 32.1692C114.367 31.7362 115.335 31.366 116.429 31.0583C117.523 30.7507 118.674 30.5969 119.881 30.5969ZM123.675 40.4065L120.821 40.5261C118.486 40.6173 116.839 40.9989 115.882 41.6711C114.925 42.3433 114.447 43.2947 114.447 44.5251C114.447 45.5961 114.771 46.3879 115.421 46.9006C116.07 47.4133 116.931 47.6697 118.001 47.6697C119.665 47.6697 121.026 47.2083 122.086 46.2854C123.146 45.3625 123.675 43.9783 123.675 42.1326V40.4065ZM140.833 30.5627C141.209 30.5627 141.603 30.5855 142.013 30.6311C142.423 30.6653 142.787 30.7166 143.106 30.7849L142.748 33.4167C142.44 33.337 142.098 33.2743 141.722 33.2288C141.346 33.1832 140.993 33.1604 140.663 33.1604C139.911 33.1604 139.199 33.3142 138.526 33.6218C137.866 33.9181 137.285 34.351 136.783 34.9207C136.282 35.4789 135.889 36.1568 135.604 36.9543C135.319 37.7405 135.177 38.6178 135.177 39.5862V49.635H132.323V30.9045H134.681L134.989 34.3567H135.108C135.496 33.6617 135.963 33.0294 136.51 32.4597C137.057 31.8787 137.689 31.4172 138.407 31.0754C139.136 30.7336 139.945 30.5627 140.833 30.5627ZM149.481 30.9045V49.635H146.644V30.9045H149.481ZM148.097 23.8977C148.564 23.8977 148.963 24.0515 149.293 24.3591C149.635 24.6554 149.806 25.1225 149.806 25.7605C149.806 26.3871 149.635 26.8542 149.293 27.1619C148.963 27.4695 148.564 27.6233 148.097 27.6233C147.607 27.6233 147.197 27.4695 146.866 27.1619C146.547 26.8542 146.388 26.3871 146.388 25.7605C146.388 25.1225 146.547 24.6554 146.866 24.3591C147.197 24.0515 147.607 23.8977 148.097 23.8977ZM161.546 47.6526C162.014 47.6526 162.492 47.6127 162.982 47.533C163.472 47.4532 163.871 47.3564 164.178 47.2424V49.447C163.848 49.5951 163.386 49.7205 162.794 49.823C162.213 49.9255 161.643 49.9768 161.085 49.9768C160.094 49.9768 159.194 49.8059 158.385 49.4641C157.576 49.1109 156.926 48.5185 156.437 47.6868C155.958 46.8551 155.719 45.7043 155.719 44.2346V33.1262H153.053V31.7419L155.736 30.6311L156.864 26.5637H158.573V30.9045H164.059V33.1262H158.573V44.1492C158.573 45.3227 158.84 46.2 159.376 46.781C159.923 47.3621 160.646 47.6526 161.546 47.6526ZM180.089 44.5081C180.089 45.7043 179.787 46.7126 179.183 47.533C178.591 48.3419 177.736 48.9514 176.62 49.3616C175.514 49.7717 174.193 49.9768 172.655 49.9768C171.345 49.9768 170.211 49.8743 169.254 49.6692C168.297 49.4641 167.459 49.1736 166.742 48.7976V46.1829C167.505 46.5588 168.417 46.9006 169.476 47.2083C170.536 47.5159 171.618 47.6697 172.723 47.6697C174.341 47.6697 175.514 47.4076 176.244 46.8835C176.973 46.3595 177.337 45.6474 177.337 44.7473C177.337 44.2346 177.189 43.7846 176.893 43.3972C176.608 42.9985 176.124 42.6168 175.44 42.2522C174.757 41.8762 173.811 41.4661 172.604 41.0217C171.407 40.566 170.37 40.116 169.493 39.6716C168.627 39.2159 167.955 38.6633 167.477 38.0139C167.009 37.3645 166.776 36.5214 166.776 35.4846C166.776 33.901 167.414 32.6876 168.69 31.8445C169.977 30.99 171.664 30.5627 173.749 30.5627C174.876 30.5627 175.93 30.6767 176.91 30.9045C177.901 31.121 178.824 31.4172 179.679 31.7932L178.722 34.0662C177.947 33.7358 177.121 33.4566 176.244 33.2288C175.366 33.0009 174.472 32.887 173.561 32.887C172.25 32.887 171.242 33.1034 170.536 33.5364C169.841 33.9693 169.493 34.5618 169.493 35.3137C169.493 35.8948 169.653 36.3733 169.972 36.7493C170.302 37.1252 170.826 37.4784 171.544 37.8088C172.262 38.1392 173.207 38.5266 174.381 38.9709C175.554 39.4039 176.568 39.8539 177.423 40.321C178.277 40.7768 178.932 41.335 179.388 41.9958C179.855 42.6453 180.089 43.4827 180.089 44.5081ZM204.852 36.5442H213.585V48.6609C212.275 49.1052 210.925 49.4356 209.535 49.6521C208.156 49.8686 206.612 49.9768 204.903 49.9768C202.306 49.9768 200.112 49.4584 198.324 48.4216C196.546 47.3848 195.196 45.9094 194.273 43.9954C193.351 42.0699 192.889 39.7856 192.889 37.1423C192.889 34.5561 193.396 32.3002 194.41 30.3748C195.436 28.4493 196.911 26.9568 198.836 25.8972C200.773 24.8263 203.097 24.2908 205.809 24.2908C207.199 24.2908 208.515 24.4218 209.757 24.6838C211.01 24.9345 212.172 25.2934 213.243 25.7605L212.132 28.2898C211.209 27.891 210.19 27.5492 209.073 27.2644C207.968 26.9796 206.823 26.8372 205.638 26.8372C203.599 26.8372 201.85 27.2587 200.392 28.1018C198.945 28.9449 197.834 30.1355 197.059 31.6736C196.296 33.2117 195.914 35.0346 195.914 37.1423C195.914 39.2273 196.25 41.0445 196.922 42.594C197.595 44.1321 198.643 45.3284 200.067 46.1829C201.491 47.0374 203.325 47.4646 205.57 47.4646C206.698 47.4646 207.666 47.4019 208.475 47.2766C209.284 47.1399 210.019 46.9804 210.68 46.7981V39.1418H204.852V36.5442ZM235.357 40.2356C235.357 41.7737 235.158 43.1466 234.759 44.3542C234.361 45.5619 233.785 46.5816 233.033 47.4133C232.281 48.245 231.37 48.8831 230.299 49.3274C229.239 49.7603 228.037 49.9768 226.693 49.9768C225.44 49.9768 224.289 49.7603 223.241 49.3274C222.204 48.8831 221.304 48.245 220.541 47.4133C219.789 46.5816 219.202 45.5619 218.78 44.3542C218.37 43.1466 218.165 41.7737 218.165 40.2356C218.165 38.1848 218.513 36.4417 219.208 35.0061C219.903 33.5592 220.894 32.4597 222.181 31.7078C223.48 30.9444 225.024 30.5627 226.812 30.5627C228.521 30.5627 230.014 30.9444 231.29 31.7078C232.577 32.4711 233.574 33.5763 234.281 35.0232C234.999 36.4587 235.357 38.1962 235.357 40.2356ZM221.104 40.2356C221.104 41.7395 221.304 43.044 221.703 44.1492C222.101 45.2543 222.717 46.1088 223.548 46.7126C224.38 47.3165 225.451 47.6184 226.761 47.6184C228.06 47.6184 229.125 47.3165 229.957 46.7126C230.8 46.1088 231.421 45.2543 231.82 44.1492C232.219 43.044 232.418 41.7395 232.418 40.2356C232.418 38.7431 232.219 37.4556 231.82 36.3733C231.421 35.2795 230.806 34.4364 229.974 33.844C229.142 33.2515 228.066 32.9553 226.744 32.9553C224.796 32.9553 223.366 33.599 222.455 34.8865C221.555 36.1739 221.104 37.9569 221.104 40.2356ZM248.773 30.5627C249.149 30.5627 249.542 30.5855 249.952 30.6311C250.362 30.6653 250.727 30.7166 251.046 30.7849L250.687 33.4167C250.379 33.337 250.038 33.2743 249.662 33.2288C249.286 33.1832 248.932 33.1604 248.602 33.1604C247.85 33.1604 247.138 33.3142 246.466 33.6218C245.805 33.9181 245.224 34.351 244.723 34.9207C244.221 35.4789 243.828 36.1568 243.543 36.9543C243.259 37.7405 243.116 38.6178 243.116 39.5862V49.635H240.262V30.9045H242.621L242.928 34.3567H243.048C243.435 33.6617 243.902 33.0294 244.449 32.4597C244.996 31.8787 245.628 31.4172 246.346 31.0754C247.075 30.7336 247.884 30.5627 248.773 30.5627ZM259.813 58.0432C257.352 58.0432 255.455 57.5818 254.122 56.6589C252.789 55.7475 252.123 54.4657 252.123 52.8137C252.123 51.6402 252.493 50.6376 253.233 49.8059C253.985 48.9742 255.022 48.4216 256.344 48.1482C255.854 47.9203 255.432 47.5785 255.079 47.1228C254.737 46.6671 254.566 46.143 254.566 45.5505C254.566 44.8669 254.754 44.2688 255.13 43.7561C255.518 43.232 256.104 42.7307 256.891 42.2522C255.911 41.8534 255.113 41.1812 254.498 40.2356C253.894 39.2786 253.592 38.1677 253.592 36.9031C253.592 35.5587 253.871 34.4137 254.43 33.468C254.988 32.511 255.797 31.7818 256.856 31.2805C257.916 30.7792 259.198 30.5286 260.702 30.5286C261.032 30.5286 261.362 30.5457 261.693 30.5798C262.035 30.6026 262.359 30.6425 262.667 30.6995C262.975 30.745 263.242 30.802 263.47 30.8704H269.896V32.699L266.444 33.1262C266.786 33.5706 267.07 34.106 267.298 34.7327C267.526 35.3593 267.64 36.0543 267.64 36.8176C267.64 38.6861 267.008 40.1729 265.743 41.2781C264.479 42.3718 262.741 42.9187 260.531 42.9187C260.007 42.9187 259.471 42.8731 258.924 42.782C258.366 43.0896 257.939 43.4314 257.643 43.8074C257.358 44.1833 257.215 44.6163 257.215 45.1062C257.215 45.4708 257.324 45.7613 257.54 45.9778C257.768 46.1943 258.093 46.3538 258.514 46.4563C258.936 46.5474 259.443 46.593 260.035 46.593H263.333C265.373 46.593 266.934 47.0203 268.016 47.8748C269.11 48.7292 269.657 49.9768 269.657 51.6174C269.657 53.691 268.814 55.2804 267.127 56.3855C265.441 57.4906 263.003 58.0432 259.813 58.0432ZM259.898 55.8215C261.448 55.8215 262.73 55.662 263.744 55.343C264.769 55.0354 265.532 54.5854 266.034 53.9929C266.546 53.4119 266.803 52.7169 266.803 51.908C266.803 51.156 266.632 50.5863 266.29 50.199C265.948 49.823 265.447 49.5723 264.786 49.447C264.125 49.3103 263.316 49.2419 262.359 49.2419H259.112C258.269 49.2419 257.534 49.373 256.908 49.635C256.281 49.8971 255.797 50.2844 255.455 50.7971C255.125 51.3098 254.959 51.9478 254.959 52.7112C254.959 53.7252 255.387 54.4942 256.241 55.0183C257.096 55.5538 258.315 55.8215 259.898 55.8215ZM260.633 40.8508C261.989 40.8508 263.009 40.509 263.692 39.8254C264.376 39.1418 264.718 38.1449 264.718 36.8347C264.718 35.4333 264.37 34.3852 263.675 33.6902C262.98 32.9838 261.955 32.6306 260.599 32.6306C259.3 32.6306 258.298 32.9952 257.591 33.7244C256.896 34.4421 256.549 35.496 256.549 36.886C256.549 38.162 256.902 39.1418 257.608 39.8254C258.315 40.509 259.323 40.8508 260.633 40.8508ZM280.594 30.5969C282.827 30.5969 284.485 31.0982 285.567 32.1008C286.65 33.1034 287.191 34.7042 287.191 36.9031V49.635H285.123L284.576 46.8665H284.439C283.915 47.55 283.368 48.1254 282.799 48.5925C282.229 49.0483 281.568 49.3958 280.816 49.635C280.076 49.8629 279.164 49.9768 278.082 49.9768C276.943 49.9768 275.929 49.7774 275.04 49.3787C274.163 48.9799 273.468 48.3761 272.955 47.5671C272.454 46.7582 272.203 45.7328 272.203 44.491C272.203 42.6225 272.944 41.1869 274.425 40.1843C275.906 39.1817 278.162 38.6348 281.192 38.5437L284.422 38.407V37.262C284.422 35.6441 284.075 34.5105 283.38 33.8611C282.685 33.2117 281.705 32.887 280.44 32.887C279.461 32.887 278.526 33.0294 277.638 33.3142C276.749 33.599 275.906 33.9351 275.108 34.3225L274.237 32.1692C275.08 31.7362 276.048 31.366 277.142 31.0583C278.236 30.7507 279.387 30.5969 280.594 30.5969ZM284.388 40.4065L281.534 40.5261C279.199 40.6173 277.552 40.9989 276.595 41.6711C275.638 42.3433 275.16 43.2947 275.16 44.5251C275.16 45.5961 275.484 46.3879 276.134 46.9006C276.783 47.4133 277.643 47.6697 278.714 47.6697C280.378 47.6697 281.739 47.2083 282.799 46.2854C283.858 45.3625 284.388 43.9783 284.388 42.1326V40.4065ZM292.608 47.8577C292.608 47.0601 292.802 46.4962 293.189 46.1658C293.577 45.824 294.05 45.6531 294.608 45.6531C295.189 45.6531 295.679 45.824 296.078 46.1658C296.476 46.4962 296.676 47.0601 296.676 47.8577C296.676 48.6438 296.476 49.2192 296.078 49.5837C295.679 49.9369 295.189 50.1135 294.608 50.1135C294.05 50.1135 293.577 49.9369 293.189 49.5837C292.802 49.2192 292.608 48.6438 292.608 47.8577Z" fill="black"/>
<defs>
<linearGradient id="paint0_linear_191_676" x1="52" y1="0" x2="52" y2="70" gradientUnits="userSpaceOnUse">
<stop stop-color="#3992F1"/>
<stop offset="1" stop-color="#5AB8F9"/>
</linearGradient>
<linearGradient id="paint1_linear_191_676" x1="15" y1="4.63501" x2="15" y2="51.635" gradientUnits="userSpaceOnUse">
<stop stop-color="#3992F1"/>
<stop offset="1" stop-color="#5AB8F9"/>
</linearGradient>
<linearGradient id="paint2_linear_191_676" x1="14.5" y1="49.635" x2="14.5" y2="56.635" gradientUnits="userSpaceOnUse">
<stop stop-color="#3992F1"/>
<stop offset="1" stop-color="#5AB8F9"/>
</linearGradient>
</defs>
</svg>
