<svg width="300" height="71" viewBox="0 0 300 71" fill="none" xmlns="http://www.w3.org/2000/svg">
<path d="M70.2377 14.9045V29.193H69.1317C67.7965 25.2871 65.7937 22.3178 63.1234 20.2851C60.453 18.2524 57.5335 17.2361 54.3649 17.2361C51.3359 17.2361 48.8149 18.093 46.8022 19.8068C44.7895 21.5007 43.3646 23.8722 42.5276 26.9212C41.6906 29.9702 41.2721 33.0989 41.2721 36.3073C41.2721 40.1933 41.7305 43.601 42.6472 46.5305C43.5639 49.4599 45.0386 51.6121 47.0712 52.9872C49.1238 54.3622 51.5551 55.0497 54.3649 55.0497C55.3414 55.0497 56.3378 54.9501 57.3542 54.7508C58.3904 54.5316 59.4466 54.2227 60.5227 53.8242V45.3945C60.5227 43.8003 60.4131 42.774 60.1939 42.3156C59.9747 41.8374 59.5164 41.4089 58.8189 41.0303C58.1413 40.6516 57.3143 40.4623 56.3378 40.4623H55.2916V39.3563H74.9906V40.4623C73.4959 40.562 72.4497 40.7712 71.8519 41.0901C71.274 41.389 70.8256 41.8972 70.5067 42.6146C70.3274 42.9932 70.2377 43.9199 70.2377 45.3945V53.8242C67.647 54.98 64.9468 55.8469 62.1369 56.4248C59.347 57.0226 56.4474 57.3215 53.4383 57.3215C49.5921 57.3215 46.3937 56.8034 43.8429 55.7671C41.312 54.711 39.0701 53.3359 37.1171 51.642C35.1841 49.9282 33.6696 48.0051 32.5735 45.8728C31.1785 43.1227 30.4811 40.0438 30.4811 36.6361C30.4811 30.5381 32.6233 25.3867 36.9079 21.1819C41.1924 16.977 46.583 14.8746 53.0796 14.8746C55.0923 14.8746 56.9058 15.034 58.52 15.3529C59.3968 15.5123 60.8117 15.9706 62.7646 16.7279C64.7375 17.4653 65.9033 17.8339 66.262 17.8339C66.82 17.8339 67.3382 17.6346 67.8164 17.2361C68.2947 16.8176 68.7331 16.0404 69.1317 14.9045H70.2377Z" fill="white"/>
<path d="M28.8325 15.1846V15.9163C27.8569 16.0745 26.9868 16.5952 26.2222 17.4785C25.6685 18.1377 24.8445 19.6868 23.7502 22.1257L14.5151 42.613H13.8625L4.66699 21.2952C3.55957 18.7244 2.8147 17.2148 2.43237 16.7666C2.06323 16.3184 1.35791 16.0349 0.316406 15.9163V15.1846H13.1704V15.9163H12.7354C11.5752 15.9163 10.7842 16.0613 10.3623 16.3513C10.0591 16.5491 9.90747 16.8391 9.90747 17.2214C9.90747 17.4587 9.96021 17.7422 10.0657 18.0718C10.1711 18.3882 10.5271 19.2517 11.1335 20.6624L16.8486 34.0107L22.1484 22.1257C22.7812 20.6887 23.1702 19.7263 23.3152 19.2385C23.4602 18.7507 23.5327 18.3354 23.5327 17.9927C23.5327 17.5972 23.4272 17.2478 23.2163 16.9446C23.0054 16.6414 22.6956 16.4106 22.2869 16.2524C21.72 16.0283 20.9685 15.9163 20.0325 15.9163V15.1846H28.8325Z" fill="white"/>
<circle cx="14.5" cy="53.5" r="3.5" fill="white"/>
<path d="M109.867 25.0146L100.895 50H97.9722L89 25.0146H92.042L97.8867 41.4722C98.126 42.133 98.3368 42.7653 98.519 43.3691C98.7127 43.973 98.8836 44.554 99.0317 45.1123C99.1799 45.6706 99.3109 46.2118 99.4248 46.7358C99.5387 46.2118 99.6698 45.6706 99.8179 45.1123C99.966 44.5426 100.137 43.9559 100.331 43.3521C100.524 42.7368 100.741 42.0931 100.98 41.4209L106.791 25.0146H109.867ZM119.881 30.9619C122.114 30.9619 123.772 31.4632 124.854 32.4658C125.937 33.4684 126.478 35.0692 126.478 37.2681V50H124.41L123.863 47.2314H123.727C123.202 47.915 122.656 48.4904 122.086 48.9575C121.516 49.4132 120.855 49.7607 120.104 50C119.363 50.2279 118.451 50.3418 117.369 50.3418C116.23 50.3418 115.216 50.1424 114.327 49.7437C113.45 49.3449 112.755 48.741 112.242 47.9321C111.741 47.1232 111.49 46.0978 111.49 44.856C111.49 42.9875 112.231 41.5519 113.712 40.5493C115.193 39.5467 117.449 38.9998 120.479 38.9087L123.709 38.772V37.627C123.709 36.0091 123.362 34.8755 122.667 34.2261C121.972 33.5767 120.992 33.252 119.728 33.252C118.748 33.252 117.813 33.3944 116.925 33.6792C116.036 33.964 115.193 34.3001 114.396 34.6875L113.524 32.5342C114.367 32.1012 115.335 31.731 116.429 31.4233C117.523 31.1157 118.674 30.9619 119.881 30.9619ZM123.675 40.7715L120.821 40.8911C118.486 40.9823 116.839 41.3639 115.882 42.0361C114.925 42.7083 114.447 43.6597 114.447 44.8901C114.447 45.9611 114.771 46.7529 115.421 47.2656C116.07 47.7783 116.931 48.0347 118.001 48.0347C119.665 48.0347 121.026 47.5732 122.086 46.6504C123.146 45.7275 123.675 44.3433 123.675 42.4976V40.7715ZM140.833 30.9277C141.209 30.9277 141.603 30.9505 142.013 30.9961C142.423 31.0303 142.787 31.0815 143.106 31.1499L142.748 33.7817C142.44 33.702 142.098 33.6393 141.722 33.5938C141.346 33.5482 140.993 33.5254 140.663 33.5254C139.911 33.5254 139.199 33.6792 138.526 33.9868C137.866 34.283 137.285 34.716 136.783 35.2856C136.282 35.8439 135.889 36.5218 135.604 37.3193C135.319 38.1055 135.177 38.9827 135.177 39.9512V50H132.323V31.2695H134.681L134.989 34.7217H135.108C135.496 34.0267 135.963 33.3944 136.51 32.8247C137.057 32.2437 137.689 31.7822 138.407 31.4404C139.136 31.0986 139.945 30.9277 140.833 30.9277ZM149.481 31.2695V50H146.644V31.2695H149.481ZM148.097 24.2627C148.564 24.2627 148.963 24.4165 149.293 24.7241C149.635 25.0203 149.806 25.4875 149.806 26.1255C149.806 26.7521 149.635 27.2192 149.293 27.5269C148.963 27.8345 148.564 27.9883 148.097 27.9883C147.607 27.9883 147.197 27.8345 146.866 27.5269C146.547 27.2192 146.388 26.7521 146.388 26.1255C146.388 25.4875 146.547 25.0203 146.866 24.7241C147.197 24.4165 147.607 24.2627 148.097 24.2627ZM161.546 48.0176C162.014 48.0176 162.492 47.9777 162.982 47.8979C163.472 47.8182 163.871 47.7214 164.178 47.6074V49.812C163.848 49.9601 163.386 50.0854 162.794 50.188C162.213 50.2905 161.643 50.3418 161.085 50.3418C160.094 50.3418 159.194 50.1709 158.385 49.8291C157.576 49.4759 156.926 48.8835 156.437 48.0518C155.958 47.2201 155.719 46.0693 155.719 44.5996V33.4912H153.053V32.1069L155.736 30.9961L156.864 26.9287H158.573V31.2695H164.059V33.4912H158.573V44.5142C158.573 45.6877 158.84 46.5649 159.376 47.146C159.923 47.7271 160.646 48.0176 161.546 48.0176ZM180.089 44.873C180.089 46.0693 179.787 47.0776 179.183 47.8979C178.591 48.7069 177.736 49.3164 176.62 49.7266C175.514 50.1367 174.193 50.3418 172.655 50.3418C171.345 50.3418 170.211 50.2393 169.254 50.0342C168.297 49.8291 167.459 49.5386 166.742 49.1626V46.5479C167.505 46.9238 168.417 47.2656 169.476 47.5732C170.536 47.8809 171.618 48.0347 172.723 48.0347C174.341 48.0347 175.514 47.7726 176.244 47.2485C176.973 46.7244 177.337 46.0124 177.337 45.1123C177.337 44.5996 177.189 44.1496 176.893 43.7622C176.608 43.3634 176.124 42.9818 175.44 42.6172C174.757 42.2412 173.811 41.8311 172.604 41.3867C171.407 40.931 170.37 40.481 169.493 40.0366C168.627 39.5809 167.955 39.0283 167.477 38.3789C167.009 37.7295 166.776 36.8864 166.776 35.8496C166.776 34.266 167.414 33.0526 168.69 32.2095C169.977 31.355 171.664 30.9277 173.749 30.9277C174.876 30.9277 175.93 31.0417 176.91 31.2695C177.901 31.486 178.824 31.7822 179.679 32.1582L178.722 34.4312C177.947 34.1007 177.121 33.8216 176.244 33.5938C175.366 33.3659 174.472 33.252 173.561 33.252C172.25 33.252 171.242 33.4684 170.536 33.9014C169.841 34.3343 169.493 34.9268 169.493 35.6787C169.493 36.2598 169.653 36.7383 169.972 37.1143C170.302 37.4902 170.826 37.8434 171.544 38.1738C172.262 38.5042 173.207 38.8916 174.381 39.3359C175.554 39.7689 176.568 40.2189 177.423 40.686C178.277 41.1418 178.932 41.7 179.388 42.3608C179.855 43.0103 180.089 43.8477 180.089 44.873ZM204.852 36.9092H213.585V49.0259C212.275 49.4702 210.925 49.8006 209.535 50.0171C208.156 50.2336 206.612 50.3418 204.903 50.3418C202.306 50.3418 200.112 49.8234 198.324 48.7866C196.546 47.7498 195.196 46.2744 194.273 44.3604C193.351 42.4349 192.889 40.1506 192.889 37.5073C192.889 34.9211 193.396 32.6652 194.41 30.7397C195.436 28.8143 196.911 27.3218 198.836 26.2622C200.773 25.1912 203.097 24.6558 205.809 24.6558C207.199 24.6558 208.515 24.7868 209.757 25.0488C211.01 25.2995 212.172 25.6584 213.243 26.1255L212.132 28.6548C211.209 28.256 210.19 27.9142 209.073 27.6294C207.968 27.3446 206.823 27.2021 205.638 27.2021C203.599 27.2021 201.85 27.6237 200.392 28.4668C198.945 29.3099 197.834 30.5005 197.059 32.0386C196.296 33.5767 195.914 35.3996 195.914 37.5073C195.914 39.5923 196.25 41.4095 196.922 42.959C197.595 44.4971 198.643 45.6934 200.067 46.5479C201.491 47.4023 203.325 47.8296 205.57 47.8296C206.698 47.8296 207.666 47.7669 208.475 47.6416C209.284 47.5049 210.019 47.3454 210.68 47.1631V39.5068H204.852V36.9092ZM235.357 40.6006C235.357 42.1387 235.158 43.5116 234.759 44.7192C234.361 45.9269 233.785 46.9466 233.033 47.7783C232.281 48.61 231.37 49.248 230.299 49.6924C229.239 50.1253 228.037 50.3418 226.693 50.3418C225.44 50.3418 224.289 50.1253 223.241 49.6924C222.204 49.248 221.304 48.61 220.541 47.7783C219.789 46.9466 219.202 45.9269 218.78 44.7192C218.37 43.5116 218.165 42.1387 218.165 40.6006C218.165 38.5498 218.513 36.8066 219.208 35.3711C219.903 33.9242 220.894 32.8247 222.181 32.0728C223.48 31.3094 225.024 30.9277 226.812 30.9277C228.521 30.9277 230.014 31.3094 231.29 32.0728C232.577 32.8361 233.574 33.9412 234.281 35.3882C234.999 36.8237 235.357 38.5612 235.357 40.6006ZM221.104 40.6006C221.104 42.1045 221.304 43.409 221.703 44.5142C222.101 45.6193 222.717 46.4738 223.548 47.0776C224.38 47.6815 225.451 47.9834 226.761 47.9834C228.06 47.9834 229.125 47.6815 229.957 47.0776C230.8 46.4738 231.421 45.6193 231.82 44.5142C232.219 43.409 232.418 42.1045 232.418 40.6006C232.418 39.1081 232.219 37.8206 231.82 36.7383C231.421 35.6445 230.806 34.8014 229.974 34.209C229.142 33.6165 228.066 33.3203 226.744 33.3203C224.796 33.3203 223.366 33.964 222.455 35.2515C221.555 36.5389 221.104 38.3219 221.104 40.6006ZM248.773 30.9277C249.149 30.9277 249.542 30.9505 249.952 30.9961C250.362 31.0303 250.727 31.0815 251.046 31.1499L250.687 33.7817C250.379 33.702 250.038 33.6393 249.662 33.5938C249.286 33.5482 248.932 33.5254 248.602 33.5254C247.85 33.5254 247.138 33.6792 246.466 33.9868C245.805 34.283 245.224 34.716 244.723 35.2856C244.221 35.8439 243.828 36.5218 243.543 37.3193C243.259 38.1055 243.116 38.9827 243.116 39.9512V50H240.262V31.2695H242.621L242.928 34.7217H243.048C243.435 34.0267 243.902 33.3944 244.449 32.8247C244.996 32.2437 245.628 31.7822 246.346 31.4404C247.075 31.0986 247.884 30.9277 248.773 30.9277ZM259.813 58.4082C257.352 58.4082 255.455 57.9468 254.122 57.0239C252.789 56.1125 252.123 54.8307 252.123 53.1787C252.123 52.0052 252.493 51.0026 253.233 50.1709C253.985 49.3392 255.022 48.7866 256.344 48.5132C255.854 48.2853 255.432 47.9435 255.079 47.4878C254.737 47.0321 254.566 46.508 254.566 45.9155C254.566 45.2319 254.754 44.6338 255.13 44.1211C255.518 43.597 256.104 43.0957 256.891 42.6172C255.911 42.2184 255.113 41.5462 254.498 40.6006C253.894 39.6436 253.592 38.5327 253.592 37.2681C253.592 35.9237 253.871 34.7786 254.43 33.833C254.988 32.876 255.797 32.1468 256.856 31.6455C257.916 31.1442 259.198 30.8936 260.702 30.8936C261.032 30.8936 261.362 30.9106 261.693 30.9448C262.035 30.9676 262.359 31.0075 262.667 31.0645C262.975 31.11 263.242 31.167 263.47 31.2354H269.896V33.064L266.444 33.4912C266.786 33.9355 267.07 34.471 267.298 35.0977C267.526 35.7243 267.64 36.4193 267.64 37.1826C267.64 39.0511 267.008 40.5379 265.743 41.6431C264.479 42.7368 262.741 43.2837 260.531 43.2837C260.007 43.2837 259.471 43.2381 258.924 43.147C258.366 43.4546 257.939 43.7964 257.643 44.1724C257.358 44.5483 257.215 44.9813 257.215 45.4712C257.215 45.8358 257.324 46.1263 257.54 46.3428C257.768 46.5592 258.093 46.7188 258.514 46.8213C258.936 46.9124 259.443 46.958 260.035 46.958H263.333C265.373 46.958 266.934 47.3853 268.016 48.2397C269.11 49.0942 269.657 50.3418 269.657 51.9824C269.657 54.056 268.814 55.6453 267.127 56.7505C265.441 57.8556 263.003 58.4082 259.813 58.4082ZM259.898 56.1865C261.448 56.1865 262.73 56.027 263.744 55.708C264.769 55.4004 265.532 54.9504 266.034 54.3579C266.546 53.7769 266.803 53.0819 266.803 52.2729C266.803 51.521 266.632 50.9513 266.29 50.564C265.948 50.188 265.447 49.9373 264.786 49.812C264.125 49.6753 263.316 49.6069 262.359 49.6069H259.112C258.269 49.6069 257.534 49.738 256.908 50C256.281 50.262 255.797 50.6494 255.455 51.1621C255.125 51.6748 254.959 52.3128 254.959 53.0762C254.959 54.0902 255.387 54.8592 256.241 55.3833C257.096 55.9188 258.315 56.1865 259.898 56.1865ZM260.633 41.2158C261.989 41.2158 263.009 40.874 263.692 40.1904C264.376 39.5068 264.718 38.5099 264.718 37.1997C264.718 35.7983 264.37 34.7502 263.675 34.0552C262.98 33.3488 261.955 32.9956 260.599 32.9956C259.3 32.9956 258.298 33.3602 257.591 34.0894C256.896 34.8071 256.549 35.861 256.549 37.251C256.549 38.527 256.902 39.5068 257.608 40.1904C258.315 40.874 259.323 41.2158 260.633 41.2158ZM280.594 30.9619C282.827 30.9619 284.485 31.4632 285.567 32.4658C286.65 33.4684 287.191 35.0692 287.191 37.2681V50H285.123L284.576 47.2314H284.439C283.915 47.915 283.368 48.4904 282.799 48.9575C282.229 49.4132 281.568 49.7607 280.816 50C280.076 50.2279 279.164 50.3418 278.082 50.3418C276.943 50.3418 275.929 50.1424 275.04 49.7437C274.163 49.3449 273.468 48.741 272.955 47.9321C272.454 47.1232 272.203 46.0978 272.203 44.856C272.203 42.9875 272.944 41.5519 274.425 40.5493C275.906 39.5467 278.162 38.9998 281.192 38.9087L284.422 38.772V37.627C284.422 36.0091 284.075 34.8755 283.38 34.2261C282.685 33.5767 281.705 33.252 280.44 33.252C279.461 33.252 278.526 33.3944 277.638 33.6792C276.749 33.964 275.906 34.3001 275.108 34.6875L274.237 32.5342C275.08 32.1012 276.048 31.731 277.142 31.4233C278.236 31.1157 279.387 30.9619 280.594 30.9619ZM284.388 40.7715L281.534 40.8911C279.199 40.9823 277.552 41.3639 276.595 42.0361C275.638 42.7083 275.16 43.6597 275.16 44.8901C275.16 45.9611 275.484 46.7529 276.134 47.2656C276.783 47.7783 277.643 48.0347 278.714 48.0347C280.378 48.0347 281.739 47.5732 282.799 46.6504C283.858 45.7275 284.388 44.3433 284.388 42.4976V40.7715ZM292.608 48.2227C292.608 47.4251 292.802 46.8612 293.189 46.5308C293.577 46.189 294.05 46.0181 294.608 46.0181C295.189 46.0181 295.679 46.189 296.078 46.5308C296.476 46.8612 296.676 47.4251 296.676 48.2227C296.676 49.0088 296.476 49.5841 296.078 49.9487C295.679 50.3019 295.189 50.4785 294.608 50.4785C294.05 50.4785 293.577 50.3019 293.189 49.9487C292.802 49.5841 292.608 49.0088 292.608 48.2227Z" fill="white"/>
</svg>
